<svg width="310" height="27" viewBox="0 0 310 27" fill="none" xmlns="http://www.w3.org/2000/svg">
<path d="M97.2839 13.1137L100.446 7.18652H101.938L97.9812 14.4435V19.0409H96.5866V14.5084L92.6378 7.18652H94.146L97.2839 13.1137Z" fill="black"/>
<path d="M83.4998 7.18652H86.8485C88.4215 7.18652 89.5594 7.42167 90.2621 7.89195C90.9648 8.36223 91.3162 9.1055 91.3162 10.1217C91.3162 10.8245 91.1189 11.4056 90.7243 11.865C90.3351 12.3191 89.7648 12.6137 89.0134 12.7488V12.8299C90.8135 13.138 91.7135 14.084 91.7135 15.6678C91.7135 16.7273 91.354 17.5544 90.6351 18.149C89.9216 18.7436 88.9215 19.0409 87.635 19.0409H83.4998V7.18652ZM84.8782 12.2623H87.1485C88.1215 12.2623 88.8215 12.111 89.2486 11.8083C89.6756 11.5002 89.8891 10.9839 89.8891 10.2596C89.8891 9.5947 89.6513 9.11631 89.1756 8.82441C88.6999 8.5271 87.9431 8.37845 86.9053 8.37845H84.8782V12.2623ZM84.8782 13.4299V17.8652H87.3512C88.308 17.8652 89.0269 17.6814 89.508 17.3138C89.9945 16.9409 90.2378 16.3598 90.2378 15.5705C90.2378 14.8354 89.9891 14.2948 89.4918 13.9489C88.9999 13.6029 88.2485 13.4299 87.2377 13.4299H84.8782Z" fill="black"/>
<path d="M76.5345 13.0002C76.5345 14.957 76.002 16.4544 74.9371 17.4922C73.8776 18.5247 72.3506 19.0409 70.3559 19.0409H67.072V7.18652H70.7046C72.5479 7.18652 73.9803 7.69735 75.002 8.719C76.0236 9.74065 76.5345 11.1677 76.5345 13.0002ZM75.075 13.0489C75.075 11.5029 74.6858 10.338 73.9074 9.55416C73.1344 8.77035 71.983 8.37845 70.4532 8.37845H68.4504V17.849H70.1289C71.7722 17.849 73.0073 17.4463 73.8344 16.6408C74.6614 15.83 75.075 14.6327 75.075 13.0489Z" fill="black"/>
<path d="M64.437 19.0409H57.8287V7.18652H64.437V8.41088H59.2072V12.2299H64.1208V13.4462H59.2072V17.8084H64.437V19.0409Z" fill="black"/>
<path d="M48.942 14.111V19.0409H47.5636V7.18652H50.815C52.2691 7.18652 53.3421 7.46491 54.0341 8.02168C54.7314 8.57845 55.08 9.41632 55.08 10.5353C55.08 12.1029 54.2854 13.1624 52.6962 13.7137L55.9152 19.0409H54.2854L51.4151 14.111H48.942ZM48.942 12.9272H50.8313C51.8043 12.9272 52.5178 12.7353 52.9719 12.3515C53.4259 11.9623 53.653 11.3812 53.653 10.6082C53.653 9.82444 53.4205 9.25956 52.9556 8.9136C52.4962 8.56764 51.7556 8.39467 50.734 8.39467H48.942V12.9272Z" fill="black"/>
<path d="M44.9284 19.0409H38.3201V7.18652H44.9284V8.41088H39.6985V12.2299H44.6121V13.4462H39.6985V17.8084H44.9284V19.0409Z" fill="black"/>
<path d="M33.2927 19.0409H31.9305L29.5386 11.1029C29.4251 10.7515 29.298 10.3082 29.1575 9.77308C29.0169 9.23793 28.944 8.9163 28.9386 8.80819C28.8196 9.52173 28.6304 10.3028 28.371 11.1515L26.052 19.0409H24.6898L21.5356 7.18652H22.9951L24.8682 14.5084C25.1276 15.5354 25.3168 16.4652 25.4358 17.2976C25.5817 16.3084 25.7979 15.3408 26.0844 14.3948L28.2088 7.18652H29.6683L31.8981 14.4597C32.1576 15.2976 32.3765 16.2435 32.5549 17.2976C32.6576 16.53 32.8522 15.5949 33.1387 14.4921L35.0036 7.18652H36.4631L33.2927 19.0409Z" fill="black"/>
<path d="M20.2951 13.0975C20.2951 14.9948 19.814 16.4868 18.8518 17.5733C17.8951 18.6598 16.5626 19.2031 14.8544 19.2031C13.1084 19.2031 11.7597 18.6706 10.8084 17.6057C9.86239 16.5354 9.3894 15.0273 9.3894 13.0813C9.3894 11.1515 9.86509 9.65683 10.8165 8.59734C11.7679 7.53245 13.1192 7 14.8706 7C16.5734 7 17.9032 7.54056 18.8599 8.62167C19.8167 9.70278 20.2951 11.1947 20.2951 13.0975ZM10.8489 13.0975C10.8489 14.7029 11.1895 15.9219 11.8706 16.7543C12.5571 17.5814 13.5517 17.9949 14.8544 17.9949C16.168 17.9949 17.1599 17.5814 17.8302 16.7543C18.5005 15.9273 18.8356 14.7083 18.8356 13.0975C18.8356 11.5028 18.5005 10.2947 17.8302 9.47304C17.1653 8.64599 16.1788 8.23247 14.8706 8.23247C13.5571 8.23247 12.5571 8.6487 11.8706 9.48115C11.1895 10.3082 10.8489 11.5136 10.8489 13.0975Z" fill="black"/>
<path d="M7.51643 10.6407C7.51643 11.8407 7.10561 12.7651 6.28396 13.4137C5.46772 14.057 4.29742 14.3786 2.77305 14.3786H1.37842V19.0409H0V7.18652H3.07306C6.03531 7.18652 7.51643 8.33791 7.51643 10.6407ZM1.37842 13.1948H2.61899C3.84065 13.1948 4.72446 12.9975 5.27042 12.6029C5.81638 12.2083 6.08936 11.5758 6.08936 10.7055C6.08936 9.92174 5.8326 9.33794 5.31907 8.95414C4.80554 8.57035 4.00552 8.37845 2.919 8.37845H1.37842V13.1948Z" fill="black"/>
<path d="M116.152 2.76562V7.34766C116.152 7.82422 116.137 8.28906 116.105 8.74219C116.082 9.19531 116.055 9.54688 116.023 9.79688H116.176C116.449 9.34375 116.785 8.97266 117.184 8.68359C117.582 8.38672 118.027 8.16406 118.52 8.01562C119.02 7.86719 119.551 7.79297 120.113 7.79297C121.105 7.79297 121.949 7.96094 122.645 8.29688C123.34 8.625 123.871 9.13672 124.238 9.83203C124.613 10.5273 124.801 11.4297 124.801 12.5391V21H122.047V13.0547C122.047 12.0469 121.84 11.293 121.426 10.793C121.012 10.2852 120.371 10.0312 119.504 10.0312C118.668 10.0312 118.004 10.207 117.512 10.5586C117.027 10.9023 116.68 11.4141 116.469 12.0938C116.258 12.7656 116.152 13.5859 116.152 14.5547V21H113.398V2.76562H116.152ZM133.742 7.78125C135.383 7.78125 136.621 8.14453 137.457 8.87109C138.301 9.59766 138.723 10.7305 138.723 12.2695V21H136.766L136.238 19.1602H136.145C135.777 19.6289 135.398 20.0156 135.008 20.3203C134.617 20.625 134.164 20.8516 133.648 21C133.141 21.1562 132.52 21.2344 131.785 21.2344C131.012 21.2344 130.32 21.0938 129.711 20.8125C129.102 20.5234 128.621 20.0859 128.27 19.5C127.918 18.9141 127.742 18.1719 127.742 17.2734C127.742 15.9375 128.238 14.9336 129.23 14.2617C130.23 13.5898 131.738 13.2188 133.754 13.1484L136.004 13.0664V12.3867C136.004 11.4883 135.793 10.8477 135.371 10.4648C134.957 10.082 134.371 9.89062 133.613 9.89062C132.965 9.89062 132.336 9.98438 131.727 10.1719C131.117 10.3594 130.523 10.5898 129.945 10.8633L129.055 8.91797C129.688 8.58203 130.406 8.30859 131.211 8.09766C132.023 7.88672 132.867 7.78125 133.742 7.78125ZM135.992 14.8008L134.316 14.8594C132.941 14.9062 131.977 15.1406 131.422 15.5625C130.867 15.9844 130.59 16.5625 130.59 17.2969C130.59 17.9375 130.781 18.4062 131.164 18.7031C131.547 18.9922 132.051 19.1367 132.676 19.1367C133.629 19.1367 134.418 18.8672 135.043 18.3281C135.676 17.7812 135.992 16.9805 135.992 15.9258V14.8008ZM149.234 7.78125C150.773 7.78125 152.008 8.34375 152.938 9.46875C153.875 10.5938 154.344 12.2656 154.344 14.4844C154.344 15.9531 154.125 17.1914 153.688 18.1992C153.258 19.1992 152.652 19.957 151.871 20.4727C151.098 20.9805 150.195 21.2344 149.164 21.2344C148.508 21.2344 147.938 21.1484 147.453 20.9766C146.969 20.8047 146.555 20.582 146.211 20.3086C145.867 20.0273 145.578 19.7227 145.344 19.3945H145.18C145.219 19.707 145.254 20.0547 145.285 20.4375C145.324 20.8125 145.344 21.1562 145.344 21.4688V26.7539H142.578V8.02734H144.828L145.215 9.82031H145.344C145.586 9.45312 145.879 9.11328 146.223 8.80078C146.574 8.48828 146.996 8.24219 147.488 8.0625C147.988 7.875 148.57 7.78125 149.234 7.78125ZM148.496 10.0312C147.738 10.0312 147.129 10.1836 146.668 10.4883C146.215 10.7852 145.883 11.2344 145.672 11.8359C145.469 12.4375 145.359 13.1914 145.344 14.0977V14.4844C145.344 15.4453 145.441 16.2617 145.637 16.9336C145.84 17.5977 146.172 18.1055 146.633 18.457C147.102 18.8008 147.734 18.9727 148.531 18.9727C149.203 18.9727 149.758 18.7891 150.195 18.4219C150.641 18.0547 150.973 17.5312 151.191 16.8516C151.41 16.1719 151.52 15.3711 151.52 14.4492C151.52 13.0508 151.27 11.9648 150.77 11.1914C150.277 10.418 149.52 10.0312 148.496 10.0312ZM164.188 7.78125C165.727 7.78125 166.961 8.34375 167.891 9.46875C168.828 10.5938 169.297 12.2656 169.297 14.4844C169.297 15.9531 169.078 17.1914 168.641 18.1992C168.211 19.1992 167.605 19.957 166.824 20.4727C166.051 20.9805 165.148 21.2344 164.117 21.2344C163.461 21.2344 162.891 21.1484 162.406 20.9766C161.922 20.8047 161.508 20.582 161.164 20.3086C160.82 20.0273 160.531 19.7227 160.297 19.3945H160.133C160.172 19.707 160.207 20.0547 160.238 20.4375C160.277 20.8125 160.297 21.1562 160.297 21.4688V26.7539H157.531V8.02734H159.781L160.168 9.82031H160.297C160.539 9.45312 160.832 9.11328 161.176 8.80078C161.527 8.48828 161.949 8.24219 162.441 8.0625C162.941 7.875 163.523 7.78125 164.188 7.78125ZM163.449 10.0312C162.691 10.0312 162.082 10.1836 161.621 10.4883C161.168 10.7852 160.836 11.2344 160.625 11.8359C160.422 12.4375 160.312 13.1914 160.297 14.0977V14.4844C160.297 15.4453 160.395 16.2617 160.59 16.9336C160.793 17.5977 161.125 18.1055 161.586 18.457C162.055 18.8008 162.688 18.9727 163.484 18.9727C164.156 18.9727 164.711 18.7891 165.148 18.4219C165.594 18.0547 165.926 17.5312 166.145 16.8516C166.363 16.1719 166.473 15.3711 166.473 14.4492C166.473 13.0508 166.223 11.9648 165.723 11.1914C165.23 10.418 164.473 10.0312 163.449 10.0312ZM175.238 8.02734V21H172.484V8.02734H175.238ZM173.879 3.05859C174.301 3.05859 174.664 3.17188 174.969 3.39844C175.281 3.625 175.438 4.01563 175.438 4.57031C175.438 5.11719 175.281 5.50781 174.969 5.74219C174.664 5.96875 174.301 6.08203 173.879 6.08203C173.441 6.08203 173.07 5.96875 172.766 5.74219C172.469 5.50781 172.32 5.11719 172.32 4.57031C172.32 4.01563 172.469 3.625 172.766 3.39844C173.07 3.17188 173.441 3.05859 173.879 3.05859ZM181.953 21H179.188V2.76562H181.953V21ZM183.934 8.02734H186.934L189.594 15.4336C189.711 15.7695 189.816 16.1016 189.91 16.4297C190.012 16.75 190.098 17.0664 190.168 17.3789C190.246 17.6914 190.309 18.0039 190.355 18.3164H190.426C190.504 17.9102 190.613 17.457 190.754 16.957C190.902 16.4492 191.066 15.9414 191.246 15.4336L193.801 8.02734H196.766L191.199 22.7812C190.879 23.625 190.484 24.3438 190.016 24.9375C189.555 25.5391 189.008 25.9922 188.375 26.2969C187.742 26.6094 187.02 26.7656 186.207 26.7656C185.816 26.7656 185.477 26.7422 185.188 26.6953C184.898 26.6562 184.652 26.6133 184.449 26.5664V24.3633C184.613 24.4023 184.82 24.4375 185.07 24.4688C185.32 24.5 185.578 24.5156 185.844 24.5156C186.336 24.5156 186.762 24.418 187.121 24.2227C187.48 24.0273 187.785 23.75 188.035 23.3906C188.285 23.0391 188.492 22.6367 188.656 22.1836L189.113 20.9648L183.934 8.02734Z" fill="black"/>
<path d="M203.84 21L208.256 3.48H212.12L216.56 21H213.488L212.528 16.752H207.872L206.912 21H203.84ZM208.424 14.304H211.976L210.92 9.6C210.744 8.816 210.592 8.112 210.464 7.488C210.336 6.848 210.248 6.384 210.2 6.096C210.152 6.384 210.064 6.848 209.936 7.488C209.824 8.112 209.672 8.808 209.48 9.576L208.424 14.304ZM219.695 21V3.48H225.239C226.407 3.48 227.415 3.696 228.263 4.128C229.127 4.56 229.799 5.168 230.279 5.952C230.759 6.72 230.999 7.632 230.999 8.688C230.999 9.84 230.703 10.856 230.111 11.736C229.535 12.616 228.751 13.24 227.759 13.608L231.239 21H227.879L224.831 14.04H222.695V21H219.695ZM222.695 11.4H225.239C226.087 11.4 226.751 11.168 227.231 10.704C227.711 10.24 227.951 9.6 227.951 8.784C227.951 7.952 227.711 7.304 227.231 6.84C226.751 6.36 226.087 6.12 225.239 6.12H222.695V11.4ZM234.565 21V3.48H240.109C241.277 3.48 242.285 3.696 243.133 4.128C243.997 4.56 244.669 5.168 245.149 5.952C245.629 6.72 245.869 7.632 245.869 8.688C245.869 9.84 245.573 10.856 244.981 11.736C244.405 12.616 243.621 13.24 242.629 13.608L246.109 21H242.749L239.701 14.04H237.565V21H234.565ZM237.565 11.4H240.109C240.957 11.4 241.621 11.168 242.101 10.704C242.581 10.24 242.821 9.6 242.821 8.784C242.821 7.952 242.581 7.304 242.101 6.84C241.621 6.36 240.957 6.12 240.109 6.12H237.565V11.4ZM249.772 21V18.36H253.3V6.12H249.772V3.48H259.852V6.12H256.324V18.36H259.852V21H249.772ZM267.738 21L263.322 3.48H266.442L269.082 14.904C269.226 15.464 269.362 16.064 269.49 16.704C269.618 17.344 269.714 17.864 269.778 18.264C269.842 17.864 269.93 17.344 270.042 16.704C270.154 16.064 270.274 15.456 270.402 14.88L273.018 3.48H276.042L271.626 21H267.738ZM279.465 21V3.48H289.977V6.096H282.417V10.656H289.137V13.248H282.417V18.384H289.977V21H279.465ZM294.024 21V3.48H299.232C300.416 3.48 301.44 3.704 302.304 4.152C303.184 4.6 303.864 5.232 304.344 6.048C304.824 6.864 305.064 7.832 305.064 8.952V15.504C305.064 16.608 304.824 17.576 304.344 18.408C303.864 19.224 303.184 19.864 302.304 20.328C301.44 20.776 300.416 21 299.232 21H294.024ZM297.024 18.24H299.232C300.096 18.24 300.784 18 301.296 17.52C301.808 17.024 302.064 16.352 302.064 15.504V8.952C302.064 8.12 301.808 7.464 301.296 6.984C300.784 6.488 300.096 6.24 299.232 6.24H297.024V18.24Z" fill="#5625C0"/>
</svg>
