<svg width="310" height="27" viewBox="0 0 310 27" fill="none" xmlns="http://www.w3.org/2000/svg">
<path d="M115.977 2.76562V7.34766C115.977 7.82422 115.961 8.28906 115.93 8.74219C115.906 9.19531 115.879 9.54688 115.848 9.79688H116C116.273 9.34375 116.609 8.97266 117.008 8.68359C117.406 8.38672 117.852 8.16406 118.344 8.01562C118.844 7.86719 119.375 7.79297 119.938 7.79297C120.93 7.79297 121.773 7.96094 122.469 8.29688C123.164 8.625 123.695 9.13672 124.062 9.83203C124.438 10.5273 124.625 11.4297 124.625 12.5391V21H121.871V13.0547C121.871 12.0469 121.664 11.293 121.25 10.793C120.836 10.2852 120.195 10.0312 119.328 10.0312C118.492 10.0312 117.828 10.207 117.336 10.5586C116.852 10.9023 116.504 11.4141 116.293 12.0938C116.082 12.7656 115.977 13.5859 115.977 14.5547V21H113.223V2.76562H115.977ZM133.566 7.78125C135.207 7.78125 136.445 8.14453 137.281 8.87109C138.125 9.59766 138.547 10.7305 138.547 12.2695V21H136.59L136.062 19.1602H135.969C135.602 19.6289 135.223 20.0156 134.832 20.3203C134.441 20.625 133.988 20.8516 133.473 21C132.965 21.1562 132.344 21.2344 131.609 21.2344C130.836 21.2344 130.145 21.0938 129.535 20.8125C128.926 20.5234 128.445 20.0859 128.094 19.5C127.742 18.9141 127.566 18.1719 127.566 17.2734C127.566 15.9375 128.062 14.9336 129.055 14.2617C130.055 13.5898 131.562 13.2188 133.578 13.1484L135.828 13.0664V12.3867C135.828 11.4883 135.617 10.8477 135.195 10.4648C134.781 10.082 134.195 9.89062 133.438 9.89062C132.789 9.89062 132.16 9.98438 131.551 10.1719C130.941 10.3594 130.348 10.5898 129.77 10.8633L128.879 8.91797C129.512 8.58203 130.23 8.30859 131.035 8.09766C131.848 7.88672 132.691 7.78125 133.566 7.78125ZM135.816 14.8008L134.141 14.8594C132.766 14.9062 131.801 15.1406 131.246 15.5625C130.691 15.9844 130.414 16.5625 130.414 17.2969C130.414 17.9375 130.605 18.4062 130.988 18.7031C131.371 18.9922 131.875 19.1367 132.5 19.1367C133.453 19.1367 134.242 18.8672 134.867 18.3281C135.5 17.7812 135.816 16.9805 135.816 15.9258V14.8008ZM149.059 7.78125C150.598 7.78125 151.832 8.34375 152.762 9.46875C153.699 10.5938 154.168 12.2656 154.168 14.4844C154.168 15.9531 153.949 17.1914 153.512 18.1992C153.082 19.1992 152.477 19.957 151.695 20.4727C150.922 20.9805 150.02 21.2344 148.988 21.2344C148.332 21.2344 147.762 21.1484 147.277 20.9766C146.793 20.8047 146.379 20.582 146.035 20.3086C145.691 20.0273 145.402 19.7227 145.168 19.3945H145.004C145.043 19.707 145.078 20.0547 145.109 20.4375C145.148 20.8125 145.168 21.1562 145.168 21.4688V26.7539H142.402V8.02734H144.652L145.039 9.82031H145.168C145.41 9.45312 145.703 9.11328 146.047 8.80078C146.398 8.48828 146.82 8.24219 147.312 8.0625C147.812 7.875 148.395 7.78125 149.059 7.78125ZM148.32 10.0312C147.562 10.0312 146.953 10.1836 146.492 10.4883C146.039 10.7852 145.707 11.2344 145.496 11.8359C145.293 12.4375 145.184 13.1914 145.168 14.0977V14.4844C145.168 15.4453 145.266 16.2617 145.461 16.9336C145.664 17.5977 145.996 18.1055 146.457 18.457C146.926 18.8008 147.559 18.9727 148.355 18.9727C149.027 18.9727 149.582 18.7891 150.02 18.4219C150.465 18.0547 150.797 17.5312 151.016 16.8516C151.234 16.1719 151.344 15.3711 151.344 14.4492C151.344 13.0508 151.094 11.9648 150.594 11.1914C150.102 10.418 149.344 10.0312 148.32 10.0312ZM164.012 7.78125C165.551 7.78125 166.785 8.34375 167.715 9.46875C168.652 10.5938 169.121 12.2656 169.121 14.4844C169.121 15.9531 168.902 17.1914 168.465 18.1992C168.035 19.1992 167.43 19.957 166.648 20.4727C165.875 20.9805 164.973 21.2344 163.941 21.2344C163.285 21.2344 162.715 21.1484 162.23 20.9766C161.746 20.8047 161.332 20.582 160.988 20.3086C160.645 20.0273 160.355 19.7227 160.121 19.3945H159.957C159.996 19.707 160.031 20.0547 160.062 20.4375C160.102 20.8125 160.121 21.1562 160.121 21.4688V26.7539H157.355V8.02734H159.605L159.992 9.82031H160.121C160.363 9.45312 160.656 9.11328 161 8.80078C161.352 8.48828 161.773 8.24219 162.266 8.0625C162.766 7.875 163.348 7.78125 164.012 7.78125ZM163.273 10.0312C162.516 10.0312 161.906 10.1836 161.445 10.4883C160.992 10.7852 160.66 11.2344 160.449 11.8359C160.246 12.4375 160.137 13.1914 160.121 14.0977V14.4844C160.121 15.4453 160.219 16.2617 160.414 16.9336C160.617 17.5977 160.949 18.1055 161.41 18.457C161.879 18.8008 162.512 18.9727 163.309 18.9727C163.98 18.9727 164.535 18.7891 164.973 18.4219C165.418 18.0547 165.75 17.5312 165.969 16.8516C166.188 16.1719 166.297 15.3711 166.297 14.4492C166.297 13.0508 166.047 11.9648 165.547 11.1914C165.055 10.418 164.297 10.0312 163.273 10.0312ZM175.062 8.02734V21H172.309V8.02734H175.062ZM173.703 3.05859C174.125 3.05859 174.488 3.17188 174.793 3.39844C175.105 3.625 175.262 4.01563 175.262 4.57031C175.262 5.11719 175.105 5.50781 174.793 5.74219C174.488 5.96875 174.125 6.08203 173.703 6.08203C173.266 6.08203 172.895 5.96875 172.59 5.74219C172.293 5.50781 172.145 5.11719 172.145 4.57031C172.145 4.01563 172.293 3.625 172.59 3.39844C172.895 3.17188 173.266 3.05859 173.703 3.05859ZM181.777 21H179.012V2.76562H181.777V21ZM183.758 8.02734H186.758L189.418 15.4336C189.535 15.7695 189.641 16.1016 189.734 16.4297C189.836 16.75 189.922 17.0664 189.992 17.3789C190.07 17.6914 190.133 18.0039 190.18 18.3164H190.25C190.328 17.9102 190.438 17.457 190.578 16.957C190.727 16.4492 190.891 15.9414 191.07 15.4336L193.625 8.02734H196.59L191.023 22.7812C190.703 23.625 190.309 24.3438 189.84 24.9375C189.379 25.5391 188.832 25.9922 188.199 26.2969C187.566 26.6094 186.844 26.7656 186.031 26.7656C185.641 26.7656 185.301 26.7422 185.012 26.6953C184.723 26.6562 184.477 26.6133 184.273 26.5664V24.3633C184.438 24.4023 184.645 24.4375 184.895 24.4688C185.145 24.5 185.402 24.5156 185.668 24.5156C186.16 24.5156 186.586 24.418 186.945 24.2227C187.305 24.0273 187.609 23.75 187.859 23.3906C188.109 23.0391 188.316 22.6367 188.48 22.1836L188.938 20.9648L183.758 8.02734Z" fill="#FBFBFB"/>
<path d="M203.664 21L208.08 3.48H211.944L216.384 21H213.312L212.352 16.752H207.696L206.736 21H203.664ZM208.248 14.304H211.8L210.744 9.6C210.568 8.816 210.416 8.112 210.288 7.488C210.16 6.848 210.072 6.384 210.024 6.096C209.976 6.384 209.888 6.848 209.76 7.488C209.648 8.112 209.496 8.808 209.304 9.576L208.248 14.304ZM219.519 21V3.48H225.063C226.231 3.48 227.239 3.696 228.087 4.128C228.951 4.56 229.623 5.168 230.103 5.952C230.583 6.72 230.823 7.632 230.823 8.688C230.823 9.84 230.527 10.856 229.935 11.736C229.359 12.616 228.575 13.24 227.583 13.608L231.063 21H227.703L224.655 14.04H222.519V21H219.519ZM222.519 11.4H225.063C225.911 11.4 226.575 11.168 227.055 10.704C227.535 10.24 227.775 9.6 227.775 8.784C227.775 7.952 227.535 7.304 227.055 6.84C226.575 6.36 225.911 6.12 225.063 6.12H222.519V11.4ZM234.389 21V3.48H239.933C241.101 3.48 242.109 3.696 242.957 4.128C243.821 4.56 244.493 5.168 244.973 5.952C245.453 6.72 245.693 7.632 245.693 8.688C245.693 9.84 245.397 10.856 244.805 11.736C244.229 12.616 243.445 13.24 242.453 13.608L245.933 21H242.573L239.525 14.04H237.389V21H234.389ZM237.389 11.4H239.933C240.781 11.4 241.445 11.168 241.925 10.704C242.405 10.24 242.645 9.6 242.645 8.784C242.645 7.952 242.405 7.304 241.925 6.84C241.445 6.36 240.781 6.12 239.933 6.12H237.389V11.4ZM249.596 21V18.36H253.124V6.12H249.596V3.48H259.676V6.12H256.148V18.36H259.676V21H249.596ZM267.563 21L263.147 3.48H266.267L268.907 14.904C269.051 15.464 269.187 16.064 269.315 16.704C269.443 17.344 269.539 17.864 269.603 18.264C269.667 17.864 269.755 17.344 269.867 16.704C269.979 16.064 270.099 15.456 270.227 14.88L272.843 3.48H275.867L271.451 21H267.563ZM279.289 21V3.48H289.801V6.096H282.241V10.656H288.961V13.248H282.241V18.384H289.801V21H279.289ZM293.848 21V3.48H299.056C300.24 3.48 301.264 3.704 302.128 4.152C303.008 4.6 303.688 5.232 304.168 6.048C304.648 6.864 304.888 7.832 304.888 8.952V15.504C304.888 16.608 304.648 17.576 304.168 18.408C303.688 19.224 303.008 19.864 302.128 20.328C301.264 20.776 300.24 21 299.056 21H293.848ZM296.848 18.24H299.056C299.92 18.24 300.608 18 301.12 17.52C301.632 17.024 301.888 16.352 301.888 15.504V8.952C301.888 8.12 301.632 7.464 301.12 6.984C300.608 6.488 299.92 6.24 299.056 6.24H296.848V18.24Z" fill="#7761E2"/>
<path d="M97.2839 14.1136L100.446 8.1864H101.938L97.9812 15.4434V20.0408H96.5866V15.5082L92.6378 8.1864H94.146L97.2839 14.1136Z" fill="#FBFBFB"/>
<path d="M83.4998 8.1864H86.8485C88.4215 8.1864 89.5594 8.42154 90.2621 8.89183C90.9648 9.36211 91.3162 10.1054 91.3162 11.1216C91.3162 11.8243 91.1189 12.4054 90.7243 12.8649C90.3351 13.319 89.7648 13.6136 89.0134 13.7487V13.8298C90.8135 14.1379 91.7135 15.0839 91.7135 16.6677C91.7135 17.7272 91.354 18.5543 90.6351 19.1489C89.9216 19.7435 88.9215 20.0408 87.635 20.0408H83.4998V8.1864ZM84.8782 13.2622H87.1485C88.1215 13.2622 88.8215 13.1109 89.2486 12.8082C89.6756 12.5 89.8891 11.9838 89.8891 11.2595C89.8891 10.5946 89.6513 10.1162 89.1756 9.82429C88.6999 9.52698 87.9431 9.37833 86.9053 9.37833H84.8782V13.2622ZM84.8782 14.4298V18.8651H87.3512C88.308 18.8651 89.0269 18.6813 89.508 18.3137C89.9945 17.9407 90.2378 17.3596 90.2378 16.5704C90.2378 15.8353 89.9891 15.2947 89.4918 14.9488C88.9999 14.6028 88.2485 14.4298 87.2377 14.4298H84.8782Z" fill="#FBFBFB"/>
<path d="M76.5345 14.0001C76.5345 15.9569 76.002 17.4542 74.9371 18.4921C73.8776 19.5246 72.3506 20.0408 70.3559 20.0408H67.072V8.1864H70.7046C72.5479 8.1864 73.9803 8.69723 75.002 9.71888C76.0236 10.7405 76.5345 12.1676 76.5345 14.0001ZM75.075 14.0487C75.075 12.5027 74.6858 11.3378 73.9074 10.554C73.1344 9.77023 71.983 9.37833 70.4532 9.37833H68.4504V18.8489H70.1289C71.7722 18.8489 73.0073 18.4462 73.8344 17.6407C74.6614 16.8299 75.075 15.6326 75.075 14.0487Z" fill="#FBFBFB"/>
<path d="M64.437 20.0408H57.8287V8.1864H64.437V9.41076H59.2072V13.2298H64.1208V14.446H59.2072V18.8083H64.437V20.0408Z" fill="#FBFBFB"/>
<path d="M48.942 15.1109V20.0408H47.5636V8.1864H50.815C52.2691 8.1864 53.3421 8.46479 54.0341 9.02156C54.7314 9.57833 55.08 10.4162 55.08 11.5351C55.08 13.1028 54.2854 14.1622 52.6962 14.7136L55.9152 20.0408H54.2854L51.4151 15.1109H48.942ZM48.942 13.9271H50.8313C51.8043 13.9271 52.5178 13.7352 52.9719 13.3514C53.4259 12.9622 53.653 12.3811 53.653 11.6081C53.653 10.8243 53.4205 10.2594 52.9556 9.91348C52.4962 9.56752 51.7556 9.39454 50.734 9.39454H48.942V13.9271Z" fill="#FBFBFB"/>
<path d="M44.9284 20.0408H38.3201V8.1864H44.9284V9.41076H39.6985V13.2298H44.6121V14.446H39.6985V18.8083H44.9284V20.0408Z" fill="#FBFBFB"/>
<path d="M33.2927 20.0408H31.9305L29.5386 12.1027C29.4251 11.7514 29.298 11.3081 29.1575 10.773C29.0169 10.2378 28.944 9.91618 28.9386 9.80807C28.8196 10.5216 28.6304 11.3027 28.371 12.1514L26.052 20.0408H24.6898L21.5356 8.1864H22.9951L24.8682 15.5082C25.1276 16.5353 25.3168 17.465 25.4358 18.2975C25.5817 17.3083 25.7979 16.3407 26.0844 15.3947L28.2088 8.1864H29.6683L31.8981 15.4596C32.1576 16.2974 32.3765 17.2434 32.5549 18.2975C32.6576 17.5299 32.8522 16.5947 33.1387 15.492L35.0036 8.1864H36.4631L33.2927 20.0408Z" fill="#FBFBFB"/>
<path d="M20.2951 14.0973C20.2951 15.9947 19.814 17.4866 18.8518 18.5732C17.8951 19.6597 16.5626 20.2029 14.8544 20.2029C13.1084 20.2029 11.7597 19.6705 10.8084 18.6056C9.86239 17.5353 9.3894 16.0271 9.3894 14.0811C9.3894 12.1513 9.86509 10.6567 10.8165 9.59722C11.7679 8.53233 13.1192 7.99988 14.8706 7.99988C16.5734 7.99988 17.9032 8.54043 18.8599 9.62155C19.8167 10.7027 20.2951 12.1946 20.2951 14.0973ZM10.8489 14.0973C10.8489 15.7028 11.1895 16.9218 11.8706 17.7542C12.5571 18.5813 13.5517 18.9948 14.8544 18.9948C16.168 18.9948 17.1599 18.5813 17.8302 17.7542C18.5005 16.9272 18.8356 15.7082 18.8356 14.0973C18.8356 12.5027 18.5005 11.2946 17.8302 10.4729C17.1653 9.64587 16.1788 9.23235 14.8706 9.23235C13.5571 9.23235 12.5571 9.64857 11.8706 10.481C11.1895 11.3081 10.8489 12.5135 10.8489 14.0973Z" fill="#FBFBFB"/>
<path d="M7.51643 11.6406C7.51643 12.8406 7.10561 13.7649 6.28396 14.4136C5.46772 15.0569 4.29742 15.3785 2.77305 15.3785H1.37842V20.0408H0V8.1864H3.07306C6.03531 8.1864 7.51643 9.33779 7.51643 11.6406ZM1.37842 14.1947H2.61899C3.84065 14.1947 4.72446 13.9974 5.27042 13.6028C5.81638 13.2082 6.08936 12.5757 6.08936 11.7054C6.08936 10.9216 5.8326 10.3378 5.31907 9.95402C4.80554 9.57022 4.00552 9.37833 2.919 9.37833H1.37842V14.1947Z" fill="#FBFBFB"/>
</svg>
